<?xml version="1.0" encoding="UTF-8"?><svg id="Capa_1" xmlns="http://www.w3.org/2000/svg" viewBox="0 0 143 143"><rect width="143" height="143"/><g><path d="M73.64,73.87c-.16,.02-.32,0-.48-.02-.2-.03-.45-.08-.7-.11-.65-.1-1.3-.18-1.96-.27-.44-.06-.86-.19-1.21-.47-.74-.57-.89-1.46-.41-2.26,.21-.35,.48-.64,.8-.89,.29-.24,.59-.47,.87-.73,.21-.2,.38-.43,.56-.65,.15-.18,.3-.34,.5-.46,.2-.11,.41-.14,.63-.1,.39,.07,.72,.26,1.01,.52,.31,.26,.51,.59,.65,.95,.32,.8,.63,1.6,.95,2.41,.14,.35,.19,.71,.08,1.08-.17,.57-.65,.93-1.3,1Z"/><path d="M73.44,72.14c.13-.2,.16-.45,.11-.68-.01-.07-.03-.14-.05-.21-.17-.49-.35-.99-.51-1.48-.11-.34-.32-.65-.62-.85-.32-.21-.6-.23-.89,.02-.08,.07-.15,.16-.23,.24-.15,.16-.28,.32-.44,.47-.2,.19-.42,.37-.62,.56-.23,.21-.43,.45-.54,.74-.17,.41-.07,.82,.26,1.1,.22,.18,.48,.29,.76,.32,.34,.04,.68,.07,1.02,.1,.29,.03,.58,.08,.88,.1,.38,.03,.7-.15,.87-.43Z"/><path d="M71.35,71.33c-.16,.04-.33,.04-.48-.01-.03-.01-.07-.02-.1-.04-.21-.09-.29-.31-.22-.52,.07-.21,.21-.38,.36-.53,.15-.15,.29-.3,.44-.44,.26-.25,.51-.21,.69,.1,.16,.28,.17,.8-.15,1.14-.15,.16-.32,.25-.54,.31Z"/></g></svg>